<?xml version="1.0" encoding="UTF-8"?>
<svg xmlns="http://www.w3.org/2000/svg" xmlns:xlink="http://www.w3.org/1999/xlink" width="192px" height="192px" viewBox="0 0 192 192" version="1.1">
<g id="surface1">
<path style="fill:none;stroke-width:2.999;stroke-linecap:round;stroke-linejoin:round;stroke:rgb(20%,20%,20%);stroke-opacity:1;stroke-miterlimit:4;" d="M 1669.76697 -190.071567 C 1666.283847 -190.071567 1663.460045 -186.61447 1663.460045 -182.348404 C 1663.460045 -178.082338 1666.017082 -175.15877 1669.76697 -174.623072 L 1716.674181 -164.319014 L 1758.818666 -188.037216 " transform="matrix(1.801096,0,0,1.801096,-2985.941324,464.329266)"/>
<path style="fill:none;stroke-width:2.999;stroke-linecap:round;stroke-linejoin:round;stroke:rgb(20%,20%,20%);stroke-opacity:1;stroke-miterlimit:4;" d="M 1669.76697 -205.520063 C 1666.283847 -205.520063 1663.460045 -202.060797 1663.460045 -197.7969 C 1663.460045 -193.530833 1666.017082 -190.607266 1669.76697 -190.071567 L 1716.674181 -179.76751 L 1758.818666 -203.485711 " transform="matrix(1.801096,0,0,1.801096,-2985.941324,464.329266)"/>
<path style="fill:none;stroke-width:2.999;stroke-linecap:round;stroke-linejoin:round;stroke:rgb(20%,20%,20%);stroke-opacity:1;stroke-miterlimit:4;" d="M 1669.76697 -220.968559 C 1666.283847 -220.968559 1663.460045 -217.509293 1663.460045 -213.243227 C 1663.460045 -208.97716 1666.017082 -206.053593 1669.76697 -205.520063 L 1692.648007 -200.492741 M 1706.341929 -197.486759 L 1716.674181 -195.216005 L 1758.818666 -218.934207 " transform="matrix(1.801096,0,0,1.801096,-2985.941324,464.329266)"/>
<path style="fill-rule:nonzero;fill:rgb(20%,20%,20%);fill-opacity:1;stroke-width:11.334804;stroke-linecap:round;stroke-linejoin:round;stroke:rgb(20%,20%,20%);stroke-opacity:1;stroke-miterlimit:4;" d="M 6470.216604 -924.800365 L 6306.635074 -835.156768 L 6488.217458 -796.212298 L 6647.503703 -885.855894 Z M 6470.216604 -924.800365 " transform="matrix(0.47654,0,0,0.47654,-2985.941324,464.329266)"/>
<path style="fill-rule:nonzero;fill:rgb(94.901961%,61.568627%,8.627451%);fill-opacity:1;stroke-width:1.115347;stroke-linecap:round;stroke-linejoin:round;stroke:rgb(20%,20%,20%);stroke-opacity:1;stroke-miterlimit:4;" d="M 1715.142995 -235.605916 L 1704.281551 -229.457315 L 1721.72536 -225.625013 L 1732.588973 -231.773614 Z M 1715.142995 -235.605916 " transform="matrix(1.801096,0,0,1.801096,-2985.941324,464.329266)"/>
<path style=" stroke:none;fill-rule:evenodd;fill:rgb(95.686275%,62.352941%,8.627451%);fill-opacity:1;" d="M 69.191406 88.894531 L 69.191406 117.144531 L 75.488281 113.230469 L 82.464844 120.890625 L 82.464844 91.105469 Z M 69.191406 88.894531 "/>
</g>
</svg>
