<?xml version="1.0" encoding="UTF-8"?>
<svg xmlns="http://www.w3.org/2000/svg" xmlns:xlink="http://www.w3.org/1999/xlink" width="512px" height="512px" viewBox="0 0 512 512" version="1.1">
<g id="surface1">
<path style="fill:none;stroke-width:2.999;stroke-linecap:round;stroke-linejoin:round;stroke:rgb(20%,20%,20%);stroke-opacity:1;stroke-miterlimit:4;" d="M 1669.766157 -190.071567 C 1666.283576 -190.071567 1663.459774 -186.613386 1663.459774 -182.347591 C 1663.459774 -178.081795 1666.015998 -175.157957 1669.766157 -174.623614 L 1716.673639 -164.319827 L 1758.817582 -188.0383 " transform="matrix(4.802922,0,0,4.802922,-7962.510198,1238.211377)"/>
<path style="fill:none;stroke-width:2.999;stroke-linecap:round;stroke-linejoin:round;stroke:rgb(20%,20%,20%);stroke-opacity:1;stroke-miterlimit:4;" d="M 1669.766157 -205.520334 C 1666.283576 -205.520334 1663.459774 -202.062153 1663.459774 -197.795544 C 1663.459774 -193.529749 1666.015998 -190.606723 1669.766157 -190.071567 L 1716.673639 -179.767781 L 1758.817582 -203.486253 " transform="matrix(4.802922,0,0,4.802922,-7962.510198,1238.211377)"/>
<path style="fill:none;stroke-width:2.999;stroke-linecap:round;stroke-linejoin:round;stroke:rgb(20%,20%,20%);stroke-opacity:1;stroke-miterlimit:4;" d="M 1669.766157 -220.968288 C 1666.283576 -220.968288 1663.459774 -217.510106 1663.459774 -213.244311 C 1663.459774 -208.977702 1666.015998 -206.054677 1669.766157 -205.520334 L 1692.646923 -200.494097 M 1706.340573 -197.485674 L 1716.673639 -195.215734 L 1758.817582 -218.934207 " transform="matrix(4.802922,0,0,4.802922,-7962.510198,1238.211377)"/>
<path style="fill-rule:nonzero;fill:rgb(20%,20%,20%);fill-opacity:1;stroke-width:11.334804;stroke-linecap:round;stroke-linejoin:round;stroke:rgb(20%,20%,20%);stroke-opacity:1;stroke-miterlimit:4;" d="M 6470.214555 -924.797291 L 6306.636098 -835.155743 L 6488.215409 -796.212298 L 6647.499605 -885.853845 Z M 6470.214555 -924.797291 " transform="matrix(1.270773,0,0,1.270773,-7962.510198,1238.211377)"/>
<path style="fill-rule:nonzero;fill:rgb(94.901961%,61.568627%,8.627451%);fill-opacity:1;stroke-width:1.115347;stroke-linecap:round;stroke-linejoin:round;stroke:rgb(20%,20%,20%);stroke-opacity:1;stroke-miterlimit:4;" d="M 1715.143808 -235.605374 L 1704.280466 -229.456773 L 1721.725902 -225.62447 L 1732.58843 -231.773071 Z M 1715.143808 -235.605374 " transform="matrix(4.802922,0,0,4.802922,-7962.510198,1238.211377)"/>
<path style=" stroke:none;fill-rule:evenodd;fill:rgb(95.686275%,62.352941%,8.627451%);fill-opacity:1;" d="M 184.507812 237.046875 L 184.507812 312.386719 L 201.300781 301.949219 L 219.90625 322.371094 L 219.90625 242.949219 Z M 184.507812 237.046875 "/>
</g>
</svg>
